<svg width="117" height="108" viewBox="0 0 117 108" fill="none" xmlns="http://www.w3.org/2000/svg">
<path d="M58.5 29.3288C62.4 29.3288 65.6842 26.07 65.6842 22.2002C65.6842 18.3305 62.4 15.0717 58.5 15.0717C54.6 15.0717 51.3158 18.1268 51.3158 22.2002C51.3158 26.2737 54.6 29.3288 58.5 29.3288ZM63.6316 22.2002C63.6316 25.0517 61.3737 27.292 58.5 27.292C55.6263 27.292 53.3684 25.0517 53.3684 22.2002C53.3684 19.3488 55.6263 17.1084 58.5 17.1084C61.3737 17.1084 63.6316 19.3488 63.6316 22.2002Z" fill="black"/>
<path d="M51.9316 33.4022H65.0685C65.2738 33.4022 65.6843 33.1985 65.8895 33.1985L84.7738 14.4607H83.3369H81.6948L64.658 31.3655H52.5474L35.5106 14.4607H34.0737H32.4316L51.3158 33.1985C51.5211 33.1985 51.7264 33.4022 51.9316 33.4022Z" fill="black"/>
<path d="M1.02632 12.2203C0.410526 12.2203 0 12.6277 0 13.2387C0 13.8497 0.410526 14.2571 1.02632 14.2571H4.10526V12.2203H1.02632Z" fill="#2A76BA"/>
<path d="M22.1684 12.2203H14.5737V14.2571H22.1684C22.1684 13.8497 21.9632 13.646 21.9632 13.2387C21.9632 13.035 21.9632 12.6277 22.1684 12.2203Z" fill="#2A76BA"/>
<path d="M95.0369 12.2203C95.0369 12.6277 95.2422 12.8314 95.2422 13.2387C95.2422 13.646 95.2422 13.8497 95.0369 14.2571H102.632V12.2203H95.0369Z" fill="#2A76BA"/>
<path d="M115.974 12.2203H112.895V14.2571H115.974C116.59 14.2571 117 13.8497 117 13.2387C117 12.6277 116.59 12.2203 115.974 12.2203Z" fill="#2A76BA"/>
<path d="M32.2263 12.6277C32.2263 12.8313 32.2263 13.035 32.2263 13.4424C32.2263 13.646 32.2263 13.8497 32.2263 14.0534C32.2263 14.257 32.2263 14.257 32.2263 14.4607H32.4316H33.8685H35.3053H81.6948H83.1316H84.5685H84.979C84.979 14.257 84.979 14.257 84.979 14.0534C84.979 13.8497 84.979 13.646 84.979 13.4424C84.979 13.2387 84.979 13.035 84.979 12.6277V12.424H83.7474H33.2527H32.0211C32.2263 12.424 32.2263 12.424 32.2263 12.6277Z" fill="#2A76BA"/>
<path d="M112.895 5.0918C112.895 4.48079 112.484 4.07344 111.868 4.07344H108.79V1.01836C108.79 0.407344 108.379 0 107.763 0H103.658C103.042 0 102.632 0.407344 102.632 1.01836V12.2203V14.257V25.459C102.632 26.07 103.042 26.4774 103.658 26.4774H107.763C108.379 26.4774 108.79 26.07 108.79 25.459V22.4039H111.868C112.484 22.4039 112.895 21.9966 112.895 21.3856V14.257V12.2203V5.0918ZM110.842 12.2203V14.257V20.3672H108.79V14.257V12.2203V6.11016H110.842V12.2203ZM106.737 21.3856V24.4406H104.684V14.257V12.2203V2.03672H106.737V5.0918V12.2203V14.257V21.3856Z" fill="#0F0B21"/>
<path d="M14.3684 1.01836C14.3684 0.407344 13.9579 0 13.3421 0H9.23682C8.62103 0 8.21051 0.407344 8.21051 1.01836V4.07344H5.13156C4.51577 4.07344 4.10524 4.48079 4.10524 5.0918V12.2203V14.257V21.3856C4.10524 21.9966 4.51577 22.4039 5.13156 22.4039H8.21051V25.459C8.21051 26.07 8.62103 26.4774 9.23682 26.4774H13.3421C13.9579 26.4774 14.3684 26.07 14.3684 25.459V14.257V12.2203V1.01836ZM12.3158 12.2203V14.257V24.4406H10.2631V21.3856V14.257V12.2203V5.0918V2.03672H12.3158V12.2203ZM6.15787 14.257V12.2203V6.11016H8.21051V12.2203V14.257V20.3672H6.15787V14.257Z" fill="#0F0B21"/>
<path d="M95.0368 12.2203C94.8316 11.202 94.421 10.3873 93.6 9.57258C91.5474 7.53586 88.2631 7.53586 86.4158 9.57258L83.7474 12.2203H84.9789V12.424C84.9789 12.6277 84.9789 12.8313 84.9789 13.2387C84.9789 13.4424 84.9789 13.646 84.9789 13.8497C84.9789 14.0534 84.9789 14.0534 84.9789 14.257C85.1842 15.2754 85.5947 16.0901 86.4158 16.9048C87.2368 17.7195 88.2632 18.1268 89.2895 18.3305L66.0947 41.3454C65.8895 41.5491 65.8895 41.7528 65.8895 42.1601V59.8796H51.521V42.1601C51.521 41.9564 51.3158 41.5491 51.3158 41.3454L27.7105 18.3305C28.7368 18.1268 29.7631 17.7195 30.5842 16.9048C31.4052 16.0901 31.8158 15.2754 32.021 14.257C32.021 14.0534 32.021 14.0534 32.021 13.8497C32.021 13.646 32.021 13.4424 32.021 13.2387C32.021 13.035 32.021 12.8313 32.021 12.424V12.2203H33.2526L30.5842 9.57258C28.5315 7.53586 25.2473 7.53586 23.4 9.57258C22.5789 10.3873 22.1684 11.202 21.9631 12.2203C21.9631 12.6277 21.7579 12.8313 21.7579 13.2387C21.7579 13.646 21.7579 13.8497 21.9631 14.257C21.9631 14.6644 22.1684 15.0717 22.3736 15.4791C22.5789 15.8864 22.9894 16.4974 23.4 16.9048L49.2631 42.5675V60.8979V63.953L33.8684 100.614C32.8421 103.262 34.0737 106.113 36.7421 107.335C37.3579 107.539 37.9737 107.743 38.5894 107.743C39.2052 107.743 40.0263 107.539 40.6421 107.335C41.8737 106.724 42.9 105.909 43.3105 104.484L57.6789 70.0632H59.1158L73.4842 104.484C74.1 105.706 74.921 106.724 76.1526 107.335C77.3842 107.946 78.821 107.946 80.0526 107.335C82.721 106.317 83.9526 103.262 82.721 100.614L67.3263 63.953V60.8979V42.5675L93.1895 16.9048C93.6 16.4974 94.0105 16.0901 94.2158 15.4791C94.421 15.0717 94.6263 14.6644 94.6263 14.257C94.6263 13.8497 94.8316 13.646 94.8316 13.2387C95.0368 13.035 95.0368 12.6277 95.0368 12.2203ZM87.8526 15.4791C87.4421 15.0717 87.2368 14.6644 87.2368 14.257C87.0316 13.8497 87.0316 13.646 87.0316 13.2387C87.0316 12.8313 87.0316 12.6277 87.2368 12.2203C87.4421 11.813 87.6474 11.4056 87.8526 10.9983C88.0579 10.7946 88.4684 10.5909 88.6737 10.3873C88.8789 10.3873 88.8789 10.3873 89.0842 10.1836C89.2895 10.1836 89.4947 10.1836 89.7 9.97992C90.1105 9.97992 90.5211 9.97993 90.9316 10.1836C91.3421 10.3873 91.7526 10.5909 92.1632 10.7946C92.3684 10.9983 92.3684 11.202 92.5737 11.4056C92.7789 11.6093 92.7789 11.813 92.7789 12.0166C92.9842 12.424 92.9842 12.6277 92.9842 13.035C92.9842 13.4424 92.9842 13.646 92.7789 14.0534V14.257C92.5737 14.6644 92.3684 14.8681 92.1632 15.2754C90.9316 16.7011 89.0842 16.7011 87.8526 15.4791ZM77.1789 105.298C76.3579 104.891 75.7421 104.484 75.5368 103.669L60.7579 68.6375C60.5526 68.2301 60.1421 68.0265 59.7316 68.0265H57.0631C56.6526 68.0265 56.2421 68.2301 56.0368 68.6375L41.4631 103.669C41.0526 104.484 40.6421 105.095 39.821 105.298C39 105.706 38.1789 105.706 37.5631 105.298C35.921 104.687 35.3052 102.854 35.921 101.225L51.3158 64.3604C51.3158 64.1567 51.3158 64.1567 51.3158 63.953V61.7126H65.6842V63.953C65.6842 64.1567 65.6842 64.1567 65.6842 64.3604L81.0789 101.225C81.6947 102.854 81.0789 104.484 79.4368 105.298C78.821 105.706 78 105.706 77.1789 105.298ZM29.3526 15.4791C28.121 16.7011 26.0684 16.7011 25.0421 15.4791C24.8368 15.2754 24.4263 14.8681 24.4263 14.4607C24.4263 14.4607 24.4263 14.4607 24.4263 14.257C24.221 13.8497 24.221 13.646 24.221 13.2387C24.221 12.8313 24.221 12.6277 24.4263 12.2203C24.4263 12.0166 24.6315 11.813 24.8368 11.6093C25.0421 11.4056 25.0421 11.202 25.2473 11.202C25.4526 10.9983 25.8631 10.5909 26.2736 10.5909C26.6842 10.3873 27.0947 10.3873 27.5052 10.3873C27.9158 10.3873 28.3263 10.3873 28.7368 10.5909C29.1473 10.7946 29.3526 10.9983 29.7631 11.202C30.1736 11.6093 30.3789 12.0166 30.3789 12.424C30.5842 12.8313 30.5842 13.035 30.5842 13.4423C30.5842 13.8497 30.5842 14.0534 30.3789 14.4607C29.7631 14.6644 29.5579 15.0717 29.3526 15.4791Z" fill="black"/>
</svg>
