<svg width="27" height="23" viewBox="0 0 27 23" fill="none" xmlns="http://www.w3.org/2000/svg">
<g opacity="0.7">
<path d="M22.8342 2.06191C22.6801 1.67163 22.3049 1.51109 21.8962 1.66058L19.8529 2.40799L19.0823 0.456578C18.9282 0.0662961 18.553 -0.0942369 18.1443 0.055246L15.4198 1.0518C15.0112 1.20128 14.8415 1.56113 14.9956 1.95141L17.8209 9.10658L18.3346 10.4075L21.16 17.5627C21.3141 17.953 21.6893 18.1135 22.098 17.964L24.8225 16.9675C25.2311 16.818 25.4008 16.4582 25.2467 16.0679L24.4762 14.1165L26.5195 13.369C26.9282 13.2196 27.0979 12.8597 26.9438 12.4694L25.1459 7.91614L24.6322 6.6152L22.8342 2.06191ZM23.2699 7.11348L23.7836 8.41442L25.3247 12.3172L23.9625 12.8155L22.4214 8.9127L21.9077 7.61176L20.3666 3.70893L21.7288 3.21066L23.2699 7.11348ZM22.8571 13.9643L23.6276 15.9157L22.2654 16.414L19.6969 9.90925L19.1832 8.60831L16.6147 2.1036L17.9769 1.60533L18.7475 3.55674L20.5454 8.11003L21.0591 9.41097L22.8571 13.9643Z" fill="white"/>
<path d="M4.16578 20.8011C4.31989 21.1913 4.69508 21.3519 5.10376 21.2024L7.14713 20.455L7.91768 22.4064C8.07179 22.7967 8.44698 22.9572 8.85565 22.8077L11.5802 21.8112C11.9888 21.6617 12.1585 21.3018 12.0044 20.9116L9.17907 13.7564L8.66537 12.4554L5.84002 5.30027C5.68591 4.90999 5.31072 4.74945 4.90204 4.89894L2.17755 5.89549C1.76887 6.04497 1.59916 6.40482 1.75327 6.7951L2.52382 8.74651L0.480452 9.49392C0.0717768 9.64341 -0.0979329 10.0033 0.0561773 10.3935L1.85413 14.9468L2.36783 16.2478L4.16578 20.8011ZM3.73008 15.7495L3.21638 14.4486L1.67528 10.5457L3.03752 10.0475L4.57863 13.9503L5.09233 15.2512L6.63343 19.154L5.27118 19.6523L3.73008 15.7495ZM4.14292 8.8987L3.37237 6.94729L4.73462 6.44902L7.30312 12.9537L7.81682 14.2547L10.3853 20.7594L9.02308 21.2576L8.25253 19.3062L6.45457 14.7529L5.94087 13.452L4.14292 8.8987Z" fill="white"/>
<line y1="-1.5" x2="10.4613" y2="-1.5" transform="matrix(0.953918 -0.348919 0.373049 0.944743 8.55198 14.5557)" stroke="white" stroke-width="3"/>
</g>
</svg>
