<svg width="23" height="25" viewBox="0 0 23 25" fill="none" xmlns="http://www.w3.org/2000/svg">
<g clip-path="url(#clip0_0_51)">
<path d="M22.9891 12.7339C22.9891 11.7097 22.9108 10.9622 22.7415 10.1871H11.7291V14.81H18.1931C18.0628 15.9589 17.3591 17.689 15.7952 18.8516L15.7733 19.0064L19.2552 21.8712L19.4964 21.8968C21.7118 19.7237 22.9891 16.5264 22.9891 12.7339Z" fill="#4285F4"/>
<path d="M11.7291 24.9141C14.8959 24.9141 17.5545 23.8067 19.4964 21.8967L15.7952 18.8516C14.8047 19.5852 13.4754 20.0973 11.7291 20.0973C8.62745 20.0973 5.99494 17.9243 5.05652 14.9208L4.91897 14.9332L1.29845 17.909L1.2511 18.0488C3.17986 22.1181 7.1417 24.9141 11.7291 24.9141Z" fill="#34A853"/>
<path d="M5.0565 14.9208C4.80889 14.1457 4.66559 13.3152 4.66559 12.457C4.66559 11.5988 4.80889 10.7684 5.04347 9.99331L5.03691 9.82823L1.37102 6.80457L1.25107 6.86516C0.456137 8.5538 0 10.4501 0 12.457C0 14.464 0.456137 16.3602 1.25107 18.0488L5.0565 14.9208Z" fill="#FBBC05"/>
<path d="M11.7291 4.8167C13.9316 4.8167 15.4172 5.8271 16.2643 6.67147L19.5745 3.23884C17.5416 1.23187 14.8959 0 11.7291 0C7.1417 0 3.17986 2.7959 1.2511 6.86517L5.04349 9.99332C5.99494 6.98979 8.62745 4.8167 11.7291 4.8167Z" fill="#EB4335"/>
</g>
<defs>
<clipPath id="clip0_0_51">
<rect width="23" height="25" fill="white"/>
</clipPath>
</defs>
</svg>
