<svg width="296" height="357" viewBox="0 0 296 357" fill="none" xmlns="http://www.w3.org/2000/svg">
<path fill-rule="evenodd" clip-rule="evenodd" d="M67 0V0.225879V0.983452V2H25C12.2975 2 2 12.2975 2 25V332C2 344.703 12.2975 355 25 355H271C283.703 355 294 344.703 294 332V25C294 12.2975 283.703 2 271 2H229V0.983452V0.225879V0H271C284.807 0 296 11.1929 296 25V332C296 345.807 284.807 357 271 357H25C11.1929 357 0 345.807 0 332V25C0 11.1929 11.1929 0 25 0H67Z" fill="#66689D" fill-opacity="0.8"/>
</svg>
