<svg width="115" height="114" viewBox="0 0 115 114" fill="none" xmlns="http://www.w3.org/2000/svg">
<path d="M90.2684 52.9462C93.4339 50.7223 94.2269 46.184 92.0031 43.0184C89.7793 39.8529 85.2409 39.0599 82.0754 41.2837C78.9099 43.5075 78.1169 48.0459 80.3407 51.2114C82.5645 54.3769 86.9362 55.287 90.2684 52.9462ZM83.2458 42.9497C85.5783 41.3112 88.6985 41.8564 90.3371 44.1889C91.9757 46.5214 91.4304 49.6415 89.098 51.2801C86.7655 52.9187 83.6453 52.3735 82.0067 50.041C80.3681 47.7085 80.9133 44.5883 83.2458 42.9497Z" fill="#FAFEFF"/>
<path d="M106.04 58.0405L92.2169 61.0328C90.7807 60.0511 84.8199 56.5249 80.3944 53.4131C78.6746 52.3818 76.9727 52.0844 75.005 52.4714L53.0954 57.4122L49.2772 58.3527L38.0894 51.2824L34.0396 33.4746C33.8371 32.1238 33.0178 30.9576 31.8158 30.3091C30.6137 29.6606 29.362 29.2957 27.9617 29.7818C26.6109 29.9842 25.4447 30.8035 24.7962 32.0056C24.1477 33.2077 23.7828 34.4593 24.1023 35.9767L28.5391 55.7521C28.7416 57.1029 29.5609 58.2691 30.7629 58.9176L37.5926 63.3264L31.8068 64.6539L16.4276 54.805C14.073 53.2243 10.8717 53.9803 9.29099 56.3349C8.64248 57.537 8.27762 58.7886 8.59709 60.306C8.79953 61.6567 9.61882 62.823 10.8209 63.4715L27.9199 74.3517C29.1219 75.0002 30.3736 75.3651 31.8909 75.0456L49.9824 71.0453C51.8688 71.9595 54.021 72.1894 56.2722 71.8521L78.1819 66.9112C79.0824 66.7763 79.7488 66.3081 80.5323 66.0065L88.9647 71.28C90.1668 71.9285 91.4185 72.2934 92.9358 71.9739L108.893 68.4776C109.51 68.2931 110.127 68.1086 110.793 67.6404C112.459 66.47 113.256 64.4169 112.87 62.4493C112.667 61.0985 111.848 59.9323 110.646 59.2838C108.809 58.0859 107.391 57.8381 106.04 58.0405ZM107.871 65.9606L91.9141 69.4569C91.0136 69.5919 90.2797 69.6098 89.6449 69.0604L81.8968 64.0526L80.9784 63.4537L80.06 62.8547L77.5388 61.3911C77.2551 61.3415 76.9715 61.292 76.6878 61.2424C76.4042 61.1928 76.071 61.4269 76.0214 61.7106C75.6386 62.2283 75.8231 62.8452 76.3409 63.228L78.0607 64.2592C77.8941 64.3763 77.6104 64.3267 77.4438 64.4438L56.6013 69.1326L55.4088 64.2473L55.2917 64.0807L54.0992 59.1953L74.9417 54.5065C76.2925 54.304 77.5937 54.3853 78.6292 55.1508C79.5476 55.7498 80.5831 56.5153 81.5015 57.1143C81.9022 57.3304 82.4199 57.7132 82.8206 57.9294C86.895 60.5414 90.8524 62.9867 90.8524 62.9867C91.136 63.0363 91.2531 63.2029 91.7033 63.1354L105.859 59.909C106.76 59.774 107.494 59.7561 108.129 60.3055C108.763 60.8549 109.398 61.4043 109.416 62.1382C110.537 64.0879 109.389 65.6411 107.871 65.9606ZM31.4365 72.6277C30.536 72.7627 29.8021 72.7806 29.1673 72.2312L11.9018 61.4681C11.1004 61.0357 10.6322 60.3693 10.6143 59.6354C10.4793 58.7349 10.4614 58.001 11.0108 57.3662C11.227 56.9655 11.5602 56.7314 11.8934 56.4973C12.2266 56.2632 12.5598 56.0292 13.0101 55.9617C13.9106 55.8267 14.6445 55.8088 15.2793 56.3582L31.0591 66.4233C31.3428 66.4728 31.4598 66.6394 31.9101 66.572L40.1138 64.7901L47.3442 69.415L31.4365 72.6277ZM51.6305 69.141C51.0632 69.0418 50.5455 68.6591 49.9782 68.5599C49.8612 68.3933 49.6946 68.5104 49.5775 68.3438L42.7478 63.9349L41.4287 63.1198L40.1096 62.3047L31.5601 56.8646C30.7588 56.4323 30.2906 55.7658 30.2727 55.0319L25.8358 35.2565C25.7009 34.356 25.683 33.6221 26.2323 32.9873C26.6647 32.1859 27.4482 31.8844 28.065 31.6998C28.9655 31.5649 29.6994 31.547 30.3342 32.0963C31.1356 32.5287 31.6038 33.1951 31.6217 33.929L36.0723 51.953C36.1893 52.1196 36.1893 52.1196 36.3063 52.2862C36.4234 52.4528 36.4234 52.4528 36.5404 52.6194L48.3629 60.2391C48.6466 60.2887 48.7636 60.4553 49.2139 60.3878L49.6641 60.3204L52.6989 59.6814L52.6672 60.699L52.8696 62.0497L53.6077 64.5172L53.5582 64.8008L54.1296 67.3853L54.3321 68.7361L54.467 69.6366C54.0168 69.7041 53.5665 69.7716 53.1658 69.5554C52.8822 69.5058 52.3149 69.4067 51.6305 69.141Z" fill="#FAFEFF"/>
</svg>
