<svg width="324" height="123" viewBox="0 0 324 123" fill="none" xmlns="http://www.w3.org/2000/svg">
<path d="M1.87472 30.812L41.906 119.258L81.9374 114.012L121.969 87.7775L162 3.07874L202.031 93.7739L242.063 27.0642L282.094 49.5506L322.125 84.7793" stroke="#F462BA" stroke-width="0.535"/>
<path d="M1.87462 33.6229C2.76192 33.6229 3.48123 32.3644 3.48123 30.8121C3.48123 29.2597 2.76192 28.0013 1.87462 28.0013C0.987312 28.0013 0.268009 29.2597 0.268009 30.8121C0.268009 32.3644 0.987312 33.6229 1.87462 33.6229Z" fill="white" stroke="#F462BA" stroke-width="0.535"/>
<path d="M41.9058 122.069C42.7931 122.069 43.5124 120.811 43.5124 119.258C43.5124 117.706 42.7931 116.448 41.9058 116.448C41.0185 116.448 40.2992 117.706 40.2992 119.258C40.2992 120.811 41.0185 122.069 41.9058 122.069Z" fill="white" stroke="#F462BA" stroke-width="0.535"/>
<path d="M81.9375 116.822C82.8248 116.822 83.5441 115.564 83.5441 114.012C83.5441 112.459 82.8248 111.201 81.9375 111.201C81.0502 111.201 80.3309 112.459 80.3309 114.012C80.3309 115.564 81.0502 116.822 81.9375 116.822Z" fill="white" stroke="#F462BA" stroke-width="0.535"/>
<path d="M121.969 90.5882C122.856 90.5882 123.575 89.3297 123.575 87.7774C123.575 86.225 122.856 84.9666 121.969 84.9666C121.081 84.9666 120.362 86.225 120.362 87.7774C120.362 89.3297 121.081 90.5882 121.969 90.5882Z" fill="white" stroke="#F462BA" stroke-width="0.535"/>
<path d="M162 5.88961C162.887 5.88961 163.607 4.63117 163.607 3.07881C163.607 1.52645 162.887 0.268009 162 0.268009C161.113 0.268009 160.393 1.52645 160.393 3.07881C160.393 4.63117 161.113 5.88961 162 5.88961Z" fill="white" stroke="#F462BA" stroke-width="0.535"/>
<path d="M202.031 96.5848C202.919 96.5848 203.638 95.3263 203.638 93.774C203.638 92.2216 202.919 90.9632 202.031 90.9632C201.144 90.9632 200.425 92.2216 200.425 93.774C200.425 95.3263 201.144 96.5848 202.031 96.5848Z" fill="white" stroke="#F462BA" stroke-width="0.535"/>
<path d="M242.063 29.8751C242.95 29.8751 243.669 28.6167 243.669 27.0643C243.669 25.512 242.95 24.2535 242.063 24.2535C241.175 24.2535 240.456 25.512 240.456 27.0643C240.456 28.6167 241.175 29.8751 242.063 29.8751Z" fill="white" stroke="#F462BA" stroke-width="0.535"/>
<path d="M282.094 52.3615C282.982 52.3615 283.701 51.103 283.701 49.5507C283.701 47.9983 282.982 46.7399 282.094 46.7399C281.207 46.7399 280.488 47.9983 280.488 49.5507C280.488 51.103 281.207 52.3615 282.094 52.3615Z" fill="white" stroke="#F462BA" stroke-width="0.535"/>
<path d="M322.125 87.5901C323.013 87.5901 323.732 86.3317 323.732 84.7794C323.732 83.227 323.013 81.9686 322.125 81.9686C321.238 81.9686 320.519 83.227 320.519 84.7794C320.519 86.3317 321.238 87.5901 322.125 87.5901Z" fill="white" stroke="#F462BA" stroke-width="0.535"/>
</svg>
