<svg width="324" height="138" viewBox="0 0 324 138" fill="none" xmlns="http://www.w3.org/2000/svg">
<path d="M1.87366 40.5333L41.8824 101.212L81.8912 42.0316L121.9 60.7597L161.909 134.923L201.917 46.5263L241.926 9.07012L281.935 3.07713L321.944 9.81924" stroke="#5D1FD4" stroke-width="0.535"/>
<path d="M1.87356 43.3424C2.76037 43.3424 3.47926 42.0847 3.47926 40.5332C3.47926 38.9817 2.76037 37.724 1.87356 37.724C0.986755 37.724 0.267858 38.9817 0.267858 40.5332C0.267858 42.0847 0.986755 43.3424 1.87356 43.3424Z" fill="white" stroke="#5D1FD4" stroke-width="0.535"/>
<path d="M41.8822 104.021C42.769 104.021 43.4879 102.764 43.4879 101.212C43.4879 99.6607 42.769 98.403 41.8822 98.403C40.9954 98.403 40.2765 99.6607 40.2765 101.212C40.2765 102.764 40.9954 104.021 41.8822 104.021Z" fill="white" stroke="#5D1FD4" stroke-width="0.535"/>
<path d="M81.8913 44.8407C82.7781 44.8407 83.497 43.583 83.497 42.0315C83.497 40.48 82.7781 39.2223 81.8913 39.2223C81.0045 39.2223 80.2856 40.48 80.2856 42.0315C80.2856 43.583 81.0045 44.8407 81.8913 44.8407Z" fill="white" stroke="#5D1FD4" stroke-width="0.535"/>
<path d="M121.9 63.5689C122.787 63.5689 123.506 62.3112 123.506 60.7597C123.506 59.2082 122.787 57.9505 121.9 57.9505C121.013 57.9505 120.294 59.2082 120.294 60.7597C120.294 62.3112 121.013 63.5689 121.9 63.5689Z" fill="white" stroke="#5D1FD4" stroke-width="0.535"/>
<path d="M161.909 137.732C162.795 137.732 163.514 136.474 163.514 134.923C163.514 133.371 162.795 132.114 161.909 132.114C161.022 132.114 160.303 133.371 160.303 134.923C160.303 136.474 161.022 137.732 161.909 137.732Z" fill="white" stroke="#5D1FD4" stroke-width="0.535"/>
<path d="M201.917 49.3355C202.804 49.3355 203.523 48.0778 203.523 46.5263C203.523 44.9748 202.804 43.7171 201.917 43.7171C201.031 43.7171 200.312 44.9748 200.312 46.5263C200.312 48.0778 201.031 49.3355 201.917 49.3355Z" fill="white" stroke="#5D1FD4" stroke-width="0.535"/>
<path d="M241.926 11.8793C242.813 11.8793 243.532 10.6216 243.532 9.07007C243.532 7.51859 242.813 6.26086 241.926 6.26086C241.039 6.26086 240.32 7.51859 240.32 9.07007C240.32 10.6216 241.039 11.8793 241.926 11.8793Z" fill="white" stroke="#5D1FD4" stroke-width="0.535"/>
<path d="M281.935 5.88629C282.822 5.88629 283.541 4.62856 283.541 3.07707C283.541 1.52559 282.822 0.267858 281.935 0.267858C281.048 0.267858 280.329 1.52559 280.329 3.07707C280.329 4.62856 281.048 5.88629 281.935 5.88629Z" fill="white" stroke="#5D1FD4" stroke-width="0.535"/>
<path d="M321.944 12.6283C322.831 12.6283 323.549 11.3706 323.549 9.81912C323.549 8.26763 322.831 7.00991 321.944 7.00991C321.057 7.00991 320.338 8.26763 320.338 9.81912C320.338 11.3706 321.057 12.6283 321.944 12.6283Z" fill="white" stroke="#5D1FD4" stroke-width="0.535"/>
</svg>
