<svg width="296" height="514" viewBox="0 0 296 514" fill="none" xmlns="http://www.w3.org/2000/svg">
<path fill-rule="evenodd" clip-rule="evenodd" d="M67 0V0.415971V1.10538V1.41597H229V1.10538V0.415971V0H271C284.807 0 296 11.1929 296 25V489C296 502.807 284.807 514 271 514H25C11.1929 514 0 502.807 0 489V25C0 11.1929 11.1929 0 25 0H67ZM229 2H271C283.703 2 294 12.2975 294 25V489C294 501.703 283.703 512 271 512H25C12.2975 512 2 501.703 2 489V25C2 12.2974 12.2975 2 25 2H67V1.6446H229V2Z" fill="#66689D" fill-opacity="0.8"/>
</svg>
