<svg width="27" height="23" viewBox="0 0 27 23" fill="none" xmlns="http://www.w3.org/2000/svg">
<g opacity="0.7">
<path d="M22.8342 2.0619C22.6801 1.67162 22.3049 1.51109 21.8962 1.66057L19.8529 2.40798L19.0823 0.456577C18.9282 0.0662959 18.553 -0.0942366 18.1443 0.0552459L15.4198 1.0518C15.0112 1.20128 14.8415 1.56112 14.9956 1.9514L17.8209 9.10656L18.3346 10.4075L21.16 17.5627C21.3141 17.9529 21.6893 18.1135 22.0979 17.964L24.8224 16.9674C25.2311 16.818 25.4008 16.4581 25.2467 16.0678L24.4762 14.1164L26.5195 13.369C26.9282 13.2195 27.0979 12.8597 26.9438 12.4694L25.1458 7.91613L24.6321 6.61519L22.8342 2.0619ZM23.2699 7.11346L23.7836 8.4144L25.3247 12.3172L23.9625 12.8155L22.4214 8.91268L21.9077 7.61174L20.3666 3.70892L21.7288 3.21065L23.2699 7.11346ZM22.8571 13.9642L23.6276 15.9156L22.2654 16.4139L19.6969 9.90923L19.1832 8.60829L16.6147 2.1036L17.9769 1.60532L18.7475 3.55673L20.5454 8.11001L21.0591 9.41095L22.8571 13.9642Z" fill="#9772A2"/>
<path d="M4.1658 20.801C4.31991 21.1913 4.6951 21.3518 5.10378 21.2023L7.14714 20.4549L7.91769 22.4063C8.0718 22.7966 8.44699 22.9572 8.85566 22.8077L11.5802 21.8111C11.9888 21.6616 12.1585 21.3018 12.0044 20.9115L9.17908 13.7564L8.66538 12.4554L5.84004 5.30026C5.68593 4.90998 5.31074 4.74944 4.90206 4.89893L2.17757 5.89548C1.7689 6.04496 1.59919 6.4048 1.7533 6.79508L2.52385 8.74649L0.480482 9.4939C0.0718077 9.64339 -0.0979017 10.0032 0.0562082 10.3935L1.85416 14.9468L2.36786 16.2477L4.1658 20.801ZM3.7301 15.7495L3.2164 14.4485L1.6753 10.5457L3.03755 10.0474L4.57865 13.9502L5.09235 15.2512L6.63344 19.154L5.2712 19.6523L3.7301 15.7495ZM4.14294 8.89868L3.37239 6.94728L4.73464 6.449L7.30314 12.9537L7.81684 14.2546L10.3853 20.7593L9.02309 21.2576L8.25254 19.3062L6.45459 14.7529L5.94089 13.452L4.14294 8.89868Z" fill="#9772A2"/>
<line y1="-1.5" x2="10.4613" y2="-1.5" transform="matrix(0.953916 -0.348919 0.373048 0.94474 8.55202 14.5557)" stroke="#9772A2" stroke-width="3"/>
</g>
</svg>
