<svg width="41" height="41" viewBox="0 0 41 41" fill="none" xmlns="http://www.w3.org/2000/svg">
<path d="M30.75 13.6667H32.4583C34.2706 13.6667 36.0087 14.3866 37.2902 15.6681C38.5717 16.9496 39.2917 18.6877 39.2917 20.5C39.2917 22.3123 38.5717 24.0504 37.2902 25.3319C36.0087 26.6134 34.2706 27.3334 32.4583 27.3334H30.75" stroke="#FAFEFF" stroke-width="2" stroke-linecap="round" stroke-linejoin="round"/>
<path d="M3.41667 13.6667H30.75V29.0417C30.75 30.854 30.0301 32.5921 28.7486 33.8736C27.4671 35.1551 25.729 35.875 23.9167 35.875H10.25C8.43769 35.875 6.6996 35.1551 5.4181 33.8736C4.13661 32.5921 3.41667 30.854 3.41667 29.0417V13.6667Z" stroke="#FAFEFF" stroke-width="2" stroke-linecap="round" stroke-linejoin="round"/>
<path d="M10.25 1.70831V6.83331" stroke="#FAFEFF" stroke-width="2" stroke-linecap="round" stroke-linejoin="round"/>
<path d="M17.0833 1.70831V6.83331" stroke="#FAFEFF" stroke-width="2" stroke-linecap="round" stroke-linejoin="round"/>
<path d="M23.9167 1.70831V6.83331" stroke="#FAFEFF" stroke-width="2" stroke-linecap="round" stroke-linejoin="round"/>
</svg>
