<svg width="296" height="425" viewBox="0 0 296 425" fill="none" xmlns="http://www.w3.org/2000/svg">
<path fill-rule="evenodd" clip-rule="evenodd" d="M271 2H229V1.1708V0.840373V0.170803H67V0.840373V1.1708V2H25C12.2975 2 2 12.2975 2 25V400C2 412.703 12.2975 423 25 423H271C283.703 423 294 412.703 294 400V25C294 12.2975 283.703 2 271 2ZM25 0C11.1929 0 0 11.1929 0 25V400C0 413.807 11.1929 425 25 425H271C284.807 425 296 413.807 296 400V25C296 11.1929 284.807 0 271 0H25Z" fill="#66689D" fill-opacity="0.8"/>
</svg>
